<svg width="16" height="16" viewBox="0 0 16 16" fill="none" xmlns="http://www.w3.org/2000/svg">
<path d="M8 0.03125C6.42393 0.03125 4.88326 0.498609 3.5728 1.37423C2.26235 2.24984 1.24097 3.49439 0.637838 4.95049C0.0347026 6.40659 -0.123105 8.00884 0.184371 9.55463C0.491847 11.1004 1.2508 12.5203 2.36525 13.6348C3.4797 14.7492 4.89959 15.5082 6.44538 15.8156C7.99116 16.1231 9.59341 15.9653 11.0495 15.3622C12.5056 14.759 13.7502 13.7377 14.6258 12.4272C15.5014 11.1167 15.9688 9.57607 15.9688 8C15.9663 5.88732 15.1259 3.86188 13.632 2.36798C12.1381 0.87409 10.1127 0.0337311 8 0.03125ZM8 15.0312C6.60935 15.0312 5.24993 14.6189 4.09365 13.8463C2.93737 13.0737 2.03615 11.9755 1.50398 10.6907C0.971797 9.40595 0.832555 7.9922 1.10386 6.62827C1.37516 5.26434 2.04482 4.01149 3.02816 3.02816C4.0115 2.04482 5.26435 1.37516 6.62827 1.10385C7.9922 0.832551 9.40595 0.971793 10.6907 1.50397C11.9755 2.03615 13.0737 2.93736 13.8463 4.09365C14.6189 5.24993 15.0313 6.60935 15.0313 8C15.0292 9.86417 14.2877 11.6514 12.9696 12.9696C11.6514 14.2877 9.86417 15.0292 8 15.0312ZM5.34375 8C5.34375 8.5575 5.51917 9.10087 5.84514 9.55314C6.17112 10.0054 6.63113 10.3436 7.16002 10.5199C7.68891 10.6962 8.25987 10.7017 8.79201 10.5354C9.32415 10.3692 9.7905 10.0398 10.125 9.59375C10.1997 9.49429 10.3108 9.42858 10.434 9.41108C10.5571 9.39357 10.6822 9.4257 10.7816 9.50039C10.8811 9.57509 10.9468 9.68623 10.9643 9.80938C10.9818 9.93252 10.9497 10.0576 10.875 10.157C10.4223 10.7603 9.79135 11.2058 9.07143 11.4305C8.35151 11.6552 7.57913 11.6478 6.86368 11.4092C6.14824 11.1706 5.52598 10.713 5.08505 10.1011C4.64411 9.48925 4.40684 8.75418 4.40684 8C4.40684 7.24582 4.64411 6.51075 5.08505 5.8989C5.52598 5.28704 6.14824 4.82941 6.86368 4.59082C7.57913 4.35223 8.35151 4.34477 9.07143 4.5695C9.79135 4.79422 10.4223 5.23975 10.875 5.84297C10.9497 5.94242 10.9818 6.06748 10.9643 6.19062C10.9468 6.31377 10.8811 6.42491 10.7816 6.49961C10.6822 6.57431 10.5571 6.60643 10.434 6.58892C10.3108 6.57142 10.1997 6.50571 10.125 6.40625C9.7905 5.96025 9.32415 5.6308 8.79201 5.46457C8.25987 5.29834 7.68891 5.30376 7.16002 5.48006C6.63113 5.65636 6.17112 5.9946 5.84514 6.44686C5.51917 6.89913 5.34375 7.4425 5.34375 8Z" fill="black"/>
</svg>
