<svg width="20" height="20" viewBox="0 0 20 20" fill="none" xmlns="http://www.w3.org/2000/svg">
<path d="M17.615 19.75H17.4875C2.74999 18.9025 0.657493 6.4675 0.364993 2.6725C0.341424 2.37744 0.376309 2.08062 0.467649 1.79906C0.558989 1.5175 0.704988 1.25673 0.897281 1.03169C1.08957 0.80665 1.32438 0.621766 1.58825 0.48763C1.85212 0.353493 2.13986 0.272741 2.43499 0.250001H6.56749C6.86791 0.24971 7.1615 0.339633 7.41022 0.508122C7.65894 0.676611 7.85134 0.915903 7.96249 1.195L9.10249 4C9.21226 4.27266 9.2395 4.57156 9.18083 4.85957C9.12216 5.14758 8.98017 5.412 8.77249 5.62L7.17499 7.2325C7.42453 8.65056 8.10363 9.95775 9.12041 10.9772C10.1372 11.9967 11.4426 12.6792 12.86 12.9325L14.4875 11.32C14.6986 11.1146 14.9655 10.9759 15.255 10.9213C15.5444 10.8666 15.8435 10.8983 16.115 11.0125L18.9425 12.145C19.2174 12.2597 19.4519 12.4536 19.6162 12.702C19.7805 12.9504 19.8671 13.2422 19.865 13.54V17.5C19.865 18.0967 19.6279 18.669 19.206 19.091C18.784 19.5129 18.2117 19.75 17.615 19.75ZM2.61499 1.75C2.41608 1.75 2.22532 1.82902 2.08466 1.96967C1.94401 2.11032 1.86499 2.30109 1.86499 2.5V2.56C2.20999 7 4.42249 17.5 17.57 18.25C17.6685 18.2561 17.7673 18.2427 17.8606 18.2105C17.954 18.1783 18.04 18.1281 18.1139 18.0626C18.1877 17.9971 18.2479 17.9176 18.291 17.8288C18.3341 17.74 18.3593 17.6436 18.365 17.545V13.54L15.5375 12.4075L13.385 14.545L13.025 14.5C6.49999 13.6825 5.61499 7.1575 5.61499 7.09L5.56999 6.73L7.69999 4.5775L6.57499 1.75H2.61499Z" fill="#CF1973"/>
</svg>
